<svg width="12" height="12" viewBox="0 0 12 12" fill="none" xmlns="http://www.w3.org/2000/svg">
<path fill-rule="evenodd" clip-rule="evenodd" d="M0.254676 11.742C0.594574 12.0819 1.14566 12.0819 1.48556 11.742L5.99861 7.22893L10.5121 11.7424C10.852 12.0823 11.4031 12.0823 11.743 11.7424C12.0829 11.4025 12.0829 10.8514 11.743 10.5115L7.22949 5.99805L11.7429 1.48462C12.0828 1.14472 12.0828 0.593634 11.7429 0.253735C11.403 -0.0861635 10.8519 -0.0861629 10.512 0.253736L5.99861 4.76716L1.4856 0.254149C1.1457 -0.08575 0.594612 -0.08575 0.254713 0.254149C-0.0851861 0.594048 -0.0851855 1.14513 0.254713 1.48503L4.76773 5.99805L0.254675 10.5111C-0.0852235 10.851 -0.0852234 11.4021 0.254676 11.742Z" fill="#ADADAD"/>
</svg>
