<svg width="44" height="45" viewBox="0 0 44 45" fill="none" xmlns="http://www.w3.org/2000/svg">
<path fill-rule="evenodd" clip-rule="evenodd" d="M40 22.5C40 32.4411 31.9411 40.5 22 40.5C12.0589 40.5 4 32.4411 4 22.5C4 12.5589 12.0589 4.5 22 4.5C31.9411 4.5 40 12.5589 40 22.5ZM44 22.5C44 34.6503 34.1503 44.5 22 44.5C9.84974 44.5 0 34.6503 0 22.5C0 10.3497 9.84974 0.5 22 0.5C34.1503 0.5 44 10.3497 44 22.5ZM29.8684 14.3683C30.6495 13.5872 31.9158 13.5872 32.6968 14.3683C33.4779 15.1493 33.4779 16.4157 32.6968 17.1967L19.3617 30.5319C19.3322 30.5656 19.3013 30.5986 19.2692 30.6308C18.9452 30.9547 18.5378 31.1443 18.1161 31.1995C17.5189 31.28 16.8924 31.0907 16.4334 30.6317C16.3966 30.5949 16.3615 30.5571 16.3282 30.5182L11.3026 25.4926C10.5215 24.7115 10.5215 23.4452 11.3026 22.6642C12.0836 21.8831 13.35 21.8831 14.131 22.6642L17.8518 26.3849L29.8684 14.3683Z" fill="#5CB85C"/>
</svg>
