<svg width="16" height="16" viewBox="0 0 16 16" fill="none" xmlns="http://www.w3.org/2000/svg">
<path fill-rule="evenodd" clip-rule="evenodd" d="M11 1.99951H5.00001C3.34316 1.99951 2.00001 3.34266 2.00001 4.99951V5.99951H1.21938e-05V4.99951C1.21938e-05 2.23809 2.23859 -0.000488281 5.00001 -0.000488281H11C13.7614 -0.000488281 16 2.23809 16 4.99951V10.9995C16 13.7609 13.7614 15.9995 11 15.9995H10V13.9995H11C12.6569 13.9995 14 12.6564 14 10.9995V4.99951C14 3.34266 12.6569 1.99951 11 1.99951ZM0.305198 9.78322C-0.102819 9.3752 -0.102819 8.71367 0.305198 8.30565C0.713215 7.89763 1.37474 7.89763 1.78276 8.30565L3.99906 10.522L6.21436 8.30665C6.62237 7.89863 7.2839 7.89863 7.69192 8.30665C8.09993 8.71467 8.09993 9.3762 7.69192 9.78422L5.47662 11.9995L7.69299 14.2159C8.10101 14.6239 8.10101 15.2855 7.69299 15.6935C7.28498 16.1015 6.62345 16.1015 6.21544 15.6935L3.99906 13.4771L1.78168 15.6945C1.37366 16.1025 0.712137 16.1025 0.304121 15.6945C-0.103896 15.2865 -0.103896 14.6249 0.304121 14.2169L2.5215 11.9995L0.305198 9.78322ZM4.00001 4.49951C4.00001 4.22337 4.22387 3.99951 4.50001 3.99951H11.5C11.7762 3.99951 12 4.22337 12 4.49951C12 4.77565 11.7762 4.99951 11.5 4.99951H4.50001C4.22387 4.99951 4.00001 4.77565 4.00001 4.49951ZM4.50001 5.99951C4.22387 5.99951 4.00001 6.22337 4.00001 6.49951C4.00001 6.77565 4.22387 6.99951 4.50001 6.99951H11.5C11.7762 6.99951 12 6.77565 12 6.49951C12 6.22337 11.7762 5.99951 11.5 5.99951H4.50001ZM9.00001 8.49951C9.00001 8.22337 9.22387 7.99951 9.50001 7.99951H11.5C11.7762 7.99951 12 8.22337 12 8.49951C12 8.77565 11.7762 8.99951 11.5 8.99951H9.50001C9.22387 8.99951 9.00001 8.77565 9.00001 8.49951ZM9.50001 9.99951C9.22387 9.99951 9.00001 10.2234 9.00001 10.4995C9.00001 10.7757 9.22387 10.9995 9.50001 10.9995H11.5C11.7762 10.9995 12 10.7757 12 10.4995C12 10.2234 11.7762 9.99951 11.5 9.99951H9.50001Z" fill="#0F7EE6"/>
</svg>
