<svg width="44" height="44" viewBox="0 0 44 44" fill="none" xmlns="http://www.w3.org/2000/svg">
<path fill-rule="evenodd" clip-rule="evenodd" d="M40 22C40 31.9411 31.9411 40 22 40C12.0589 40 4 31.9411 4 22C4 12.0589 12.0589 4 22 4C31.9411 4 40 12.0589 40 22ZM44 22C44 34.1503 34.1503 44 22 44C9.84974 44 0 34.1503 0 22C0 9.84974 9.84974 0 22 0C34.1503 0 44 9.84974 44 22ZM19.9998 9.5C19.9998 8.39543 20.8953 7.5 21.9998 7.5C23.1044 7.5 23.9998 8.39543 23.9998 9.5V28.5C23.9998 29.6046 23.1044 30.5 21.9998 30.5C20.8953 30.5 19.9998 29.6046 19.9998 28.5V9.5ZM23.9998 35C23.9998 36.1046 23.1044 37 21.9998 37C20.8953 37 19.9998 36.1046 19.9998 35C19.9998 33.8954 20.8953 33 21.9998 33C23.1044 33 23.9998 33.8954 23.9998 35Z" fill="#FF4F4F"/>
</svg>
