<svg width="36" height="32" viewBox="0 0 36 32" fill="none" xmlns="http://www.w3.org/2000/svg">
<path fill-rule="evenodd" clip-rule="evenodd" d="M15.491 1.46373C16.622 -0.487912 19.3781 -0.487911 20.5091 1.46374L35.5861 27.48C36.7419 29.4743 35.3399 32 33.0771 32H2.92293C0.660087 32 -0.74191 29.4743 0.413866 27.48L15.491 1.46373ZM16.7464 27.2564C16.5636 27.2564 16.4082 27.192 16.2803 27.0632C16.1523 26.9344 16.0883 26.778 16.0883 26.594V24.0274C16.0883 23.825 16.1523 23.6594 16.2803 23.5306C16.4082 23.4019 16.5636 23.3375 16.7464 23.3375H19.2962C19.4973 23.3375 19.6618 23.4019 19.7897 23.5306C19.9177 23.6594 19.9817 23.825 19.9817 24.0274V26.594C19.9817 26.778 19.9177 26.9344 19.7897 27.0632C19.6618 27.192 19.4973 27.2564 19.2962 27.2564H16.7464ZM16.9236 20.304C16.7408 20.304 16.5854 20.2669 16.4575 20.1927C16.3295 20.1061 16.2656 19.9948 16.2656 19.8588L15.8409 11.3633C15.8409 11.2396 15.9048 11.1345 16.0328 11.0479C16.1607 10.9614 16.3161 10.9181 16.4989 10.9181H19.5012C19.7022 10.9181 19.8576 10.9614 19.9673 11.0479C20.0952 11.1345 20.1592 11.2396 20.1592 11.3633L19.8025 19.8588C19.8025 19.9948 19.7385 20.1061 19.6105 20.1927C19.5009 20.2669 19.3455 20.304 19.1444 20.304H16.9236Z" fill="#FF5757"/>
</svg>
