<svg width="18" height="16" viewBox="0 0 18 16" fill="none" xmlns="http://www.w3.org/2000/svg">
<path fill-rule="evenodd" clip-rule="evenodd" d="M7.74548 0.731867C8.311 -0.243956 9.68904 -0.243956 10.2545 0.731868L17.7931 13.74C18.371 14.7372 17.67 16 16.5385 16H1.46146C0.330044 16 -0.370955 14.7372 0.206933 13.74L7.74548 0.731867ZM8.37318 13.6282C8.28179 13.6282 8.20411 13.596 8.14013 13.5316C8.07616 13.4672 8.04417 13.389 8.04417 13.297V12.0137C8.04417 11.9125 8.07616 11.8297 8.14013 11.7653C8.20411 11.7009 8.28179 11.6687 8.37318 11.6687H9.64811C9.74864 11.6687 9.83089 11.7009 9.89487 11.7653C9.95884 11.8297 9.99083 11.9125 9.99083 12.0137V13.297C9.99083 13.389 9.95884 13.4672 9.89487 13.5316C9.83089 13.596 9.74864 13.6282 9.64811 13.6282H8.37318ZM8.46179 10.152C8.3704 10.152 8.29272 10.1334 8.22874 10.0963C8.16477 10.0531 8.13278 9.99741 8.13278 9.9294L7.92043 5.68163C7.92043 5.6198 7.95242 5.56725 8.01639 5.52396C8.08037 5.48068 8.15805 5.45904 8.24944 5.45904H9.75058C9.85111 5.45904 9.92879 5.48068 9.98363 5.52396C10.0476 5.56725 10.0796 5.6198 10.0796 5.68163L9.90123 9.9294C9.90123 9.99741 9.86924 10.0531 9.80526 10.0963C9.75043 10.1334 9.67274 10.152 9.57221 10.152H8.46179Z" fill="#FF5757"/>
</svg>
